<svg viewBox="0 0 83 83" fill="none" xmlns="http://www.w3.org/2000/svg">
<g clip-path="url(#clip0)">
<path d="M81.6174 3.62167e-08C81.6172 3.62167e-08 81.6168 3.62167e-08 81.6167 3.62167e-08H1.38333C0.61956 -0.00017288 0.000172917 0.618869 0 1.38264C0 1.38281 0 1.38316 0 1.38333V29.05H2.76667V2.76667H80.2333V33.2H31.8167V35.9667H81.6167C82.3804 35.9668 82.9998 35.3478 83 34.584C83 34.5839 83 34.5835 83 34.5833V1.38333C83.0002 0.61956 82.3811 0.000172953 81.6174 3.62167e-08Z" fill="white"/>
<path d="M73.3171 6.91675H45.6504V9.68341H73.3171V6.91675Z" fill="white"/>
<path d="M77.4665 15.2166H49.7998V17.9832H77.4665V15.2166Z" fill="white"/>
<path d="M71.9333 23.5166H44.2666V26.2833H71.9333V23.5166Z" fill="white"/>
<path d="M44.1563 11.9269C43.2093 9.65042 40.5962 8.5728 38.3199 9.51987C38.281 9.53612 38.2422 9.55272 38.2039 9.57001L26.9871 15.3887C27.4294 14.4719 27.6617 13.4679 27.6667 12.4501C27.6667 8.63021 24.5699 5.53345 20.75 5.53345C16.9301 5.53345 13.8333 8.63021 13.8333 12.4501C13.8385 13.9515 14.337 15.4098 15.2521 16.6001H15.1945C11.2679 16.6264 7.76275 19.0675 6.37647 22.7414L2.68367 35.4696C1.80456 37.7532 2.94304 40.3172 5.22675 41.1963C6.26806 41.5971 7.42227 41.5904 8.45891 41.1773C9.64996 40.6974 10.5768 39.7284 11.0034 38.5173L12.45 33.9134V53.9342C11.2596 53.0193 9.80144 52.5208 8.3 52.5154C4.4858 52.5097 1.38904 55.5971 1.38333 59.4115C1.38057 61.2795 2.13448 63.0689 3.47338 64.3716C1.34858 65.4572 0.00830004 67.6387 3.62167e-08 70.0246V81.6168C-0.00017288 82.3805 0.618869 82.9999 1.38264 83.0001C1.38281 83.0001 1.38316 83.0001 1.38333 83.0001H15.2167C15.9804 83.0003 16.5998 82.3812 16.6 81.6175C16.6 81.6173 16.6 81.6169 16.6 81.6168V70.0246C16.5933 68.0639 15.6823 66.2161 14.1314 65.0168H24.6021C23.051 66.2161 22.1401 68.0639 22.1335 70.0246V81.6168C22.1333 82.3805 22.7524 82.9999 23.5161 83.0001C23.5163 83.0001 23.5167 83.0001 23.5168 83.0001H37.3502C38.1139 83.0003 38.7333 82.3812 38.7335 81.6175C38.7335 81.6173 38.7335 81.6169 38.7335 81.6168V70.0246C38.7252 67.6387 37.3849 65.4572 35.2601 64.3716C37.9913 61.7058 38.0444 57.3305 35.3786 54.5992C33.7369 52.9173 31.3529 52.185 29.0502 52.6553V24.357L41.7493 17.7632C44.0256 16.8163 45.1032 14.2031 44.1563 11.9269ZM20.75 8.30011C23.042 8.30011 24.9 10.1581 24.9 12.4501C24.9 14.7421 23.042 16.6001 20.75 16.6001C18.459 16.5977 16.6024 14.7411 16.6 12.4501C16.6 10.1581 18.458 8.30011 20.75 8.30011ZM8.3 55.2821C10.592 55.2821 12.45 57.1401 12.45 59.4321C12.45 61.7241 10.592 63.5821 8.3 63.5821C6.00799 63.5821 4.15 61.7241 4.15 59.4321C4.15242 57.1411 6.00903 55.2847 8.3 55.2821ZM13.8333 80.2334H2.76667V70.0246C2.76943 68.0238 4.39087 66.4025 6.39186 66.4001H10.2081C12.209 66.4025 13.8306 68.0238 13.8333 70.0246V80.2334ZM35.9667 70.0246V80.2334H24.9V70.0246C24.9028 68.0238 26.5242 66.4025 28.5252 66.4001H32.3415C34.3425 66.4025 35.9639 68.0238 35.9667 70.0246ZM30.4333 55.2821C32.7243 55.2845 34.5809 57.1411 34.5833 59.4321C34.5833 61.7241 32.7253 63.5821 30.4333 63.5821C28.1413 63.5821 26.2833 61.7241 26.2833 59.4321C26.2833 57.1401 28.1413 55.2821 30.4333 55.2821ZM41.625 14.2346C41.4398 14.7098 41.0596 15.0828 40.5808 15.2586L27.0298 22.2887C26.5712 22.5267 26.2833 23.0003 26.2833 23.5168V53.9342C23.6922 55.8501 22.7946 59.3176 24.1309 62.2501H22.1333V38.7334H19.3667V62.2501H14.6025C14.996 61.3803 15.2034 60.4379 15.2115 59.4834H15.2167V24.9001C15.2165 24.136 14.5969 23.5168 13.833 23.517C13.229 23.5171 12.6948 23.9091 12.5136 24.4855L8.383 37.6297C8.07002 38.4929 7.11638 38.939 6.25319 38.6259C6.19266 38.6039 6.13335 38.5785 6.0756 38.5496C5.27759 38.1372 4.93885 37.1744 5.30301 36.3531L8.99564 23.6249C9.99147 21.0674 12.4498 19.3787 15.1944 19.3668H24.9892C25.2109 19.3671 25.4295 19.3137 25.6262 19.2115L39.3752 12.0747C40.2 11.7306 41.1507 12.0827 41.5522 12.8812C41.7651 13.3021 41.7915 13.7932 41.625 14.2346Z" fill="white"/>
<path d="M57.3932 64.3716C60.1293 61.7059 60.1863 57.3268 57.5207 54.5907C54.855 51.8546 50.4759 51.7976 47.7398 54.4633C45.0037 57.1289 44.9467 61.5081 47.6124 64.2441C47.6544 64.2872 47.6969 64.3297 47.74 64.3716C45.6154 65.4571 44.2749 67.6386 44.2666 70.0246V81.6167C44.2664 82.3805 44.8855 82.9999 45.6492 83.0001C45.6494 83.0001 45.6498 83.0001 45.6499 83.0001H59.4833C60.247 83.0002 60.8664 82.3812 60.8666 81.6174C60.8666 81.6172 60.8666 81.6169 60.8666 81.6167V70.0246C60.8583 67.6386 59.518 65.4571 57.3932 64.3716ZM52.5666 55.282C54.8586 55.282 56.7166 57.14 56.7166 59.432C56.7166 61.724 54.8586 63.582 52.5666 63.582C50.2746 63.582 48.4166 61.724 48.4166 59.432C48.419 57.141 50.2756 55.2846 52.5666 55.282ZM58.0999 80.2334H47.0333V70.0246C47.036 68.0237 48.6575 66.4025 50.6585 66.4H54.4747C56.4756 66.4025 58.0972 68.0237 58.0999 70.0246V80.2334Z" fill="white"/>
<path d="M79.527 64.3716C82.2631 61.7059 82.3201 57.3268 79.6545 54.5907C76.9888 51.8546 72.6097 51.7976 69.8736 54.4633C67.1375 57.1289 67.0805 61.5081 69.7462 64.2441C69.7882 64.2872 69.8307 64.3297 69.8738 64.3716C67.7491 65.4571 66.4087 67.6386 66.4004 70.0246V81.6167C66.4002 82.3805 67.0193 82.9999 67.783 83.0001C67.7832 83.0001 67.7836 83.0001 67.7837 83.0001H81.6171C82.3808 83.0002 83.0002 82.3812 83.0004 81.6174C83.0004 81.6172 83.0004 81.6169 83.0004 81.6167V70.0246C82.9921 67.6386 81.6518 65.4571 79.527 64.3716ZM74.7004 55.282C76.9924 55.282 78.8504 57.14 78.8504 59.432C78.8504 61.724 76.9924 63.582 74.7004 63.582C72.4084 63.582 70.5504 61.724 70.5504 59.432C70.5528 57.141 72.4094 55.2846 74.7004 55.282ZM80.2337 80.2334H69.1671V70.0246C69.1698 68.0237 70.7913 66.4025 72.7923 66.4H76.6085C78.6093 66.4025 80.231 68.0237 80.2337 70.0246V80.2334Z" fill="white"/>
</g>
<defs>
<clipPath id="clip0">
<rect width="83" height="83" fill="white"/>
</clipPath>
</defs>
</svg>
