<svg viewBox="0 0 83 83" fill="none" xmlns="http://www.w3.org/2000/svg">
<path d="M76.0833 12.4505H66.0312C65.8231 12.1683 65.6258 11.8778 65.4077 11.6035C64.9815 11.0664 64.226 10.923 63.6326 11.2665L59.7589 13.507C59.332 13.0443 58.8896 12.6019 58.4268 12.1749L60.6673 8.30118C61.0105 7.7077 60.867 6.95243 60.3303 6.52609C58.0468 4.71581 55.5106 3.24953 52.8023 2.1741C52.1647 1.91845 51.4362 2.17037 51.0927 2.76515L48.8502 6.63275C48.2463 6.44698 47.6405 6.28665 47.0331 6.15178V1.68842C47.0331 1.00561 46.5348 0.424938 45.8599 0.32135C42.9689 -0.104187 40.031 -0.104187 37.1397 0.32135C36.4647 0.424938 35.9664 1.00561 35.9664 1.68842V6.15178C35.3598 6.28681 34.7541 6.44714 34.1495 6.63275L31.907 2.76515C31.563 2.17086 30.835 1.91926 30.1974 2.1741C27.4892 3.24953 24.9528 4.71581 22.6695 6.52609C22.1328 6.95243 21.9893 7.7077 22.3325 8.30118L24.573 12.1749C24.1104 12.6018 23.668 13.0443 23.241 13.507L19.3674 11.2663C18.7739 10.9235 18.0188 11.0669 17.5923 11.6034C17.3742 11.8776 17.1769 12.1681 16.9688 12.4504H6.91672C3.09856 12.4549 0.00453906 15.5489 0 19.3671V65.0171C0.00453906 68.8353 3.09856 71.9293 6.91672 71.9338H29.05V74.7005H19.3667C18.6027 74.7005 17.9834 75.3198 17.9834 76.0838V81.6171C17.9834 82.3811 18.6027 83.0004 19.3667 83.0004H63.6334C64.3975 83.0004 65.0167 82.3811 65.0167 81.6171V76.0838C65.0167 75.3198 64.3973 74.7005 63.6334 74.7005H53.95V71.9338H76.0833C79.9014 71.9293 82.9955 68.8353 83 65.0171V19.3671C82.9955 15.5491 79.9014 12.4551 76.0833 12.4505ZM19.0391 14.2722L22.8378 16.47C23.4195 16.8072 24.1595 16.6766 24.5907 16.1607C25.3894 15.2054 26.2716 14.3231 27.2269 13.5245C27.7423 13.093 27.8728 12.3536 27.5362 11.7716L25.3383 7.97291C26.8357 6.89051 28.44 5.96405 30.1259 5.2083L32.3212 8.9942C32.6561 9.57261 33.3568 9.82842 33.9856 9.60211C35.1533 9.18079 36.3559 8.86387 37.5797 8.65507C38.2457 8.54273 38.7333 7.96594 38.7334 7.29059V2.90554C40.5734 2.72187 42.4269 2.72187 44.2667 2.90554V7.29059C44.2669 7.96594 44.7545 8.54257 45.4205 8.65507C46.6441 8.86387 47.8469 9.18079 49.0146 9.60211C49.6434 9.8289 50.3444 9.57277 50.679 8.9942L52.8742 5.2083C54.5603 5.96405 56.1646 6.89051 57.6618 7.97291L55.4639 11.7716C55.1276 12.3534 55.2581 13.093 55.7732 13.5245C56.7286 14.3232 57.6109 15.2054 58.4096 16.1607C58.8412 16.6759 59.5805 16.8063 60.1625 16.47L63.9612 14.2722C65.0436 15.7696 65.9701 17.3738 66.7258 19.0597L62.9399 21.255C62.3619 21.5901 62.106 22.2906 62.332 22.9194C62.7534 24.0871 63.0703 25.2898 63.2791 26.5135C63.3916 27.1795 63.9682 27.6671 64.6435 27.6673H69.0286C69.0745 28.1144 69.0746 28.5889 69.0978 29.0505H60.797C60.0819 18.9202 51.6555 11.0671 41.5 11.0671C31.3445 11.0671 22.9181 18.9202 22.2035 29.0505H13.9025C13.9257 28.5889 13.9258 28.1144 13.9717 27.6673H18.3569C19.0323 27.6671 19.6089 27.1795 19.7214 26.5135C19.9302 25.2899 20.2471 24.0871 20.6685 22.9194C20.8944 22.2906 20.6386 21.5903 20.0605 21.255L16.2746 19.0597C17.0302 17.3738 17.9565 15.7696 19.0391 14.2722ZM58.03 29.0505H24.97C25.6828 20.4506 32.8706 13.834 41.5 13.834C50.1294 13.834 57.3172 20.4506 58.03 29.0505ZM62.25 77.4673V80.234H20.75V77.4673H62.25ZM31.8167 74.7005V71.9338H51.1834V74.7005H31.8167ZM80.2333 65.0173C80.2309 67.3082 78.3742 69.1648 76.0833 69.1673H6.91672C4.62579 69.1648 2.76915 67.3082 2.76672 65.0173V60.8673H80.2334V65.0173H80.2333ZM80.2333 58.1005H2.76672V19.3671C2.76915 17.0762 4.62579 15.2195 6.91672 15.2171H15.1368C14.4117 16.4747 13.7778 17.783 13.2403 19.1314C12.9858 19.769 13.2374 20.4967 13.8313 20.841L17.6989 23.0835C17.5132 23.6873 17.3528 24.2929 17.2181 24.9004H12.7546C12.0718 24.9004 11.4911 25.3987 11.3875 26.0736C11.2447 27.0603 11.1543 28.0539 11.1168 29.0504H9.68328C8.91926 29.0504 8.3 29.6696 8.3 30.4337C8.3 31.1977 8.91926 31.8169 9.68328 31.8169H73.3166C74.0806 31.8169 74.6998 31.1977 74.6998 30.4337C74.6998 29.6696 74.0804 29.0504 73.3166 29.0504H71.883C71.8456 28.0541 71.7553 27.0603 71.6123 26.0736C71.5087 25.3985 70.928 24.9002 70.2452 24.9004H65.7819C65.6468 24.2938 65.4865 23.6881 65.3009 23.0835L69.1685 20.841C69.7625 20.4967 70.0141 19.769 69.7596 19.1314C69.2218 17.783 68.5882 16.4747 67.863 15.2171H76.0831C78.374 15.2195 80.2307 17.0762 80.2331 19.3671V58.1005H80.2333Z" fill="white"/>
<path d="M27.5232 44.0511L27.5229 44.0504C26.7942 39.6947 23.2095 36.3848 18.8095 36.0051C14.4095 35.6254 10.3108 38.2725 8.84692 42.439C7.38291 46.6056 8.92538 51.2346 12.5957 53.6906L12.6085 53.7034C12.62 53.711 12.6333 53.7133 12.645 53.7206C15.8534 55.8729 20.0365 55.9035 23.2761 53.7982C26.5157 51.6929 28.1869 47.858 27.5232 44.0519V44.0511ZM19.3665 38.8725C21.6717 39.3525 23.5752 40.9703 24.4203 43.1681L19.3665 44.0146V38.8725ZM11.3632 43.6404C12.0995 41.2093 14.1106 39.3783 16.5998 38.8725V45.2296L13.0741 50.5129C11.2837 48.7107 10.6267 46.0716 11.3632 43.6404ZM17.9831 52.5659C17.0889 52.5644 16.2036 52.3882 15.3768 52.0474L18.8019 46.9147L24.8745 45.8972C24.7438 49.6114 21.6996 52.5571 17.9831 52.5659Z" fill="white"/>
<path d="M73.3164 35.9658H33.1997C32.4357 35.9658 31.8164 36.5851 31.8164 37.3491V53.9491C31.8164 54.7131 32.4357 55.3324 33.1997 55.3324H73.3164C74.0804 55.3324 74.6997 54.713 74.6997 53.9491V37.3491C74.6997 36.5851 74.0803 35.9658 73.3164 35.9658ZM41.4997 52.5657H34.583V44.2657H41.4997V52.5657ZM41.4997 41.4991H34.583V38.7324H41.4997V41.4991ZM71.933 52.5657H44.2664V44.2657H71.9331V52.5657H71.933ZM71.933 41.4991H44.2664V38.7324H71.9331V41.4991H71.933Z" fill="white"/>
<path d="M48.4165 49.799H51.1832C51.9472 49.799 52.5665 49.1798 52.5665 48.4157C52.5665 47.6517 51.9472 47.0325 51.1832 47.0325H48.4165C47.6525 47.0325 47.0332 47.6517 47.0332 48.4157C47.0332 49.1798 47.6525 49.799 48.4165 49.799Z" fill="white"/>
<path d="M56.7163 49.799H59.483C60.247 49.799 60.8663 49.1798 60.8663 48.4157C60.8663 47.6517 60.247 47.0325 59.483 47.0325H56.7163C55.9523 47.0325 55.333 47.6517 55.333 48.4157C55.333 49.1798 55.9523 49.799 56.7163 49.799Z" fill="white"/>
<path d="M65.0171 49.799H67.7838C68.5478 49.799 69.1671 49.1798 69.1671 48.4157C69.1671 47.6517 68.5478 47.0325 67.7838 47.0325H65.0171C64.253 47.0325 63.6338 47.6517 63.6338 48.4157C63.6338 49.1798 64.253 49.799 65.0171 49.799Z" fill="white"/>
</svg>
