<svg viewBox="0 0 83 83" fill="none" xmlns="http://www.w3.org/2000/svg">
<path d="M79.1094 33.7188H75.2188V11.6719C75.2188 11.3279 75.0821 10.9981 74.8389 10.7548C74.5957 10.5116 74.2658 10.375 73.9219 10.375H64.8438V6.48438C64.8438 6.14042 64.7071 5.81056 64.4639 5.56735C64.2207 5.32413 63.8908 5.1875 63.5469 5.1875H53.1719C52.8279 5.1875 52.4981 5.32413 52.2548 5.56735C52.0116 5.81056 51.875 6.14042 51.875 6.48438V33.7188H35.7095L32.2507 28.5312H42.7969C43.8287 28.5312 44.8183 28.1213 45.548 27.3917C46.2776 26.6621 46.6875 25.6725 46.6875 24.6406V6.48438C46.6875 5.45252 46.2776 4.46292 45.548 3.73329C44.8183 3.00365 43.8287 2.59375 42.7969 2.59375H11.6719C10.64 2.59375 9.65042 3.00365 8.92079 3.73329C8.19115 4.46292 7.78125 5.45252 7.78125 6.48438V24.6406C7.78125 25.6725 8.19115 26.6621 8.92079 27.3917C9.65042 28.1213 10.64 28.5312 11.6719 28.5312H22.2181L18.7593 33.7188H3.89062C3.54667 33.7188 3.21681 33.8554 2.9736 34.0986C2.73038 34.3418 2.59375 34.6717 2.59375 35.0156V40.2031C2.59375 40.5471 2.73038 40.8769 2.9736 41.1202C3.21681 41.3634 3.54667 41.5 3.89062 41.5H5.1875V79.1094C5.1875 79.4533 5.32413 79.7832 5.56735 80.0264C5.81056 80.2696 6.14042 80.4062 6.48438 80.4062H11.6719C12.0158 80.4062 12.3457 80.2696 12.5889 80.0264C12.8321 79.7832 12.9688 79.4533 12.9688 79.1094V41.5H46.6875V79.1094C46.6875 79.4533 46.8241 79.7832 47.0673 80.0264C47.3106 80.2696 47.6404 80.4062 47.9844 80.4062H76.5156C76.8596 80.4062 77.1894 80.2696 77.4327 80.0264C77.6759 79.7832 77.8125 79.4533 77.8125 79.1094V41.5H79.1094C79.4533 41.5 79.7832 41.3634 80.0264 41.1202C80.2696 40.8769 80.4062 40.5471 80.4062 40.2031V35.0156C80.4062 34.6717 80.2696 34.3418 80.0264 34.0986C79.7832 33.8554 79.4533 33.7188 79.1094 33.7188ZM72.625 12.9688V33.7188H70.0312V12.9688H72.625ZM67.4375 12.9688V33.7188H64.8438V12.9688H67.4375ZM62.25 33.7188H59.6562V7.78125H62.25V33.7188ZM54.4688 7.78125H57.0625V33.7188H54.4688V7.78125ZM10.375 24.6406V6.48438C10.375 6.14042 10.5116 5.81056 10.7548 5.56735C10.9981 5.32413 11.3279 5.1875 11.6719 5.1875H42.7969C43.1408 5.1875 43.4707 5.32413 43.7139 5.56735C43.9571 5.81056 44.0938 6.14042 44.0938 6.48438V24.6406C44.0938 24.9846 43.9571 25.3144 43.7139 25.5577C43.4707 25.8009 43.1408 25.9375 42.7969 25.9375H11.6719C11.3279 25.9375 10.9981 25.8009 10.7548 25.5577C10.5116 25.3144 10.375 24.9846 10.375 24.6406ZM25.3345 28.5312H29.1343L32.5931 33.7188H21.8757L25.3345 28.5312ZM10.375 77.8125H7.78125V41.5H10.375V77.8125ZM49.2812 54.4688H75.2188V64.8438H49.2812V54.4688ZM49.2812 77.8125V67.4375H75.2188V77.8125H49.2812ZM75.2188 51.875H49.2812V41.5H75.2188V51.875ZM77.8125 38.9062H5.1875V36.3125H77.8125V38.9062Z" fill="white"/>
<path d="M59.6562 44.0938H64.8438V46.6875H59.6562V44.0938Z" fill="white"/>
<path d="M59.6562 57.0625H64.8438V59.6562H59.6562V57.0625Z" fill="white"/>
<path d="M59.6562 70.0312H64.8438V72.625H59.6562V70.0312Z" fill="white"/>
<path d="M40.2031 7.78125H36.3125V10.375H38.9062V12.9688H41.5V9.07812C41.5 8.73417 41.3634 8.40431 41.1202 8.1611C40.8769 7.91788 40.5471 7.78125 40.2031 7.78125Z" fill="white"/>
<path d="M38.9062 14.2656H41.5V16.8594H38.9062V14.2656Z" fill="white"/>
</svg>
