<svg viewBox="0 0 83 83" fill="none" xmlns="http://www.w3.org/2000/svg">
<path d="M31.8165 27.6667H29.0498V30.4334H31.8165V27.6667Z" fill="white"/>
<path d="M31.8165 33.2002H29.0498V35.9669H31.8165V33.2002Z" fill="white"/>
<path d="M31.8165 38.7332H29.0498V41.4998H31.8165V38.7332Z" fill="white"/>
<path d="M31.8165 44.2668H29.0498V47.0335H31.8165V44.2668Z" fill="white"/>
<path d="M37.3497 27.6667H34.583V30.4334H37.3497V27.6667Z" fill="white"/>
<path d="M37.3497 33.2002H34.583V35.9669H37.3497V33.2002Z" fill="white"/>
<path d="M37.3497 38.7332H34.583V41.4998H37.3497V38.7332Z" fill="white"/>
<path d="M37.3497 44.2668H34.583V47.0335H37.3497V44.2668Z" fill="white"/>
<path d="M42.8838 27.6667H40.1172V30.4334H42.8838V27.6667Z" fill="white"/>
<path d="M42.8838 33.2002H40.1172V35.9669H42.8838V33.2002Z" fill="white"/>
<path d="M42.8838 38.7332H40.1172V41.4998H42.8838V38.7332Z" fill="white"/>
<path d="M42.8838 44.2668H40.1172V47.0335H42.8838V44.2668Z" fill="white"/>
<path d="M48.4171 27.6667H45.6504V30.4334H48.4171V27.6667Z" fill="white"/>
<path d="M37.3497 22.1333H34.583V24.9H37.3497V22.1333Z" fill="white"/>
<path d="M42.8838 22.1333H40.1172V24.9H42.8838V22.1333Z" fill="white"/>
<path d="M48.4171 22.1333H45.6504V24.9H48.4171V22.1333Z" fill="white"/>
<path d="M48.4171 33.2002H45.6504V35.9669H48.4171V33.2002Z" fill="white"/>
<path d="M48.4171 38.7332H45.6504V41.4998H48.4171V38.7332Z" fill="white"/>
<path d="M48.4171 44.2668H45.6504V47.0335H48.4171V44.2668Z" fill="white"/>
<path d="M53.9493 27.6667H51.1826V30.4334H53.9493V27.6667Z" fill="white"/>
<path d="M53.9493 33.2002H51.1826V35.9669H53.9493V33.2002Z" fill="white"/>
<path d="M53.9493 38.7332H51.1826V41.4998H53.9493V38.7332Z" fill="white"/>
<path d="M53.9493 44.2668H51.1826V47.0335H53.9493V44.2668Z" fill="white"/>
<path d="M81.6182 20.75C81.6177 20.75 81.6172 20.75 81.6167 20.75H60.8667V1.38333C60.8672 0.619734 60.2485 0.000519076 59.4849 3.25974e-07C59.4844 3.25974e-07 59.4839 3.25974e-07 59.4833 3.25974e-07H23.5167C22.7531 -0.000518424 22.1339 0.618177 22.1333 1.38178C22.1333 1.3823 22.1333 1.38281 22.1333 1.38333V20.75H1.38333C0.619734 20.7495 0.000519076 21.3682 3.25974e-07 22.1318C3.25974e-07 22.1323 3.25974e-07 22.1328 3.25974e-07 22.1333V71.9333C-0.000518424 72.6969 0.618177 73.3161 1.38178 73.3167C1.3823 73.3167 1.38281 73.3167 1.38333 73.3167H4.27502C4.19479 73.7735 4.15294 74.2362 4.15 74.7V81.6167C4.14948 82.3803 4.76818 82.9995 5.53178 83C5.5323 83 5.53281 83 5.53333 83H77.4667C78.2303 83.0005 78.8495 82.3818 78.85 81.6182C78.85 81.6177 78.85 81.6172 78.85 81.6167V74.7C78.8472 74.2362 78.8054 73.7735 78.725 73.3167H81.6167C82.3803 73.3172 82.9995 72.6985 83 71.9349C83 71.9344 83 71.9339 83 71.9333V22.1333C83.0005 21.3697 82.3818 20.7505 81.6182 20.75ZM59.4833 59.4833C59.4833 61.0114 58.2447 62.25 56.7167 62.25C55.1886 62.25 53.95 61.0114 53.95 59.4833C53.95 57.9553 55.1886 56.7167 56.7167 56.7167C58.2439 56.7186 59.4814 57.9561 59.4833 59.4833ZM26.2833 56.7167C27.8114 56.7167 29.05 57.9553 29.05 59.4833C29.05 61.0114 27.8114 62.25 26.2833 62.25C24.7553 62.25 23.5167 61.0114 23.5167 59.4833C23.5186 57.9561 24.7561 56.7186 26.2833 56.7167ZM17.9833 80.2333H6.91667V74.7C6.91667 71.644 9.39404 69.1667 12.45 69.1667C15.506 69.1667 17.9833 71.644 17.9833 74.7V80.2333ZM9.68333 63.6333C9.68333 62.1053 10.9219 60.8667 12.45 60.8667C13.9781 60.8667 15.2167 62.1053 15.2167 63.6333C15.2167 65.1614 13.9781 66.4 12.45 66.4C10.9228 66.3981 9.68524 65.1605 9.68333 63.6333ZM18.1929 68.7214C17.6712 68.2182 17.0862 67.7852 16.4527 67.4333C18.5626 65.2228 18.4812 61.7202 16.2706 59.6101C14.06 57.5 10.5574 57.5816 8.44732 59.7922C6.40639 61.9303 6.40639 65.2951 8.44732 67.4332C7.12693 68.166 6.02995 69.2431 5.27292 70.5498H2.76667V23.5167H22.1333V55.8618C20.2337 57.9933 20.2978 61.2289 22.2807 63.2834C20.2057 64.431 18.7187 66.4092 18.1929 68.7214ZM31.8167 80.2333H20.75V70.55C20.75 67.494 23.2274 65.0167 26.2833 65.0167C29.3393 65.0167 31.8167 67.494 31.8167 70.55V80.2333ZM48.4167 80.2333H34.5833V70.55C34.5833 66.7301 37.6801 63.6333 41.5 63.6333C45.3199 63.6333 48.4167 66.7301 48.4167 70.55V80.2333ZM37.35 56.7167C37.35 54.4247 39.208 52.5667 41.5 52.5667C43.792 52.5667 45.65 54.4247 45.65 56.7167C45.65 59.0087 43.792 60.8667 41.5 60.8667C39.209 60.8642 37.3524 59.0076 37.35 56.7167ZM49.9248 65.7939C48.9985 64.1609 47.6204 62.8303 45.9559 61.9621C48.8777 59.5011 49.2512 55.1376 46.7904 52.2158C44.3294 49.294 39.9659 48.9205 37.0441 51.3813C34.1223 53.8423 33.7488 58.2058 36.2096 61.1276C36.4635 61.429 36.7425 61.7081 37.0441 61.9621C35.3796 62.8303 34.0015 64.1609 33.0752 65.7939C32.3479 64.7564 31.3941 63.8979 30.286 63.2834C32.4068 61.1138 32.3674 57.6355 30.1976 55.5147C28.8007 54.149 26.7836 53.6282 24.9 54.1464V2.76667H58.1V54.1464C57.6492 54.0221 57.1842 53.9561 56.7167 53.95C53.6688 53.9419 51.1915 56.4061 51.1833 59.4541C51.1795 60.8803 51.7282 62.2528 52.714 63.2834C51.6059 63.8979 50.6521 64.7564 49.9248 65.7939ZM62.25 74.7V80.2333H51.1833V70.55C51.1833 67.494 53.6607 65.0167 56.7167 65.0167C59.7726 65.0167 62.25 67.494 62.25 70.55V74.7ZM76.0833 80.2333H65.0167V74.7C65.0167 71.644 67.494 69.1667 70.55 69.1667C73.606 69.1667 76.0833 71.644 76.0833 74.7V80.2333ZM67.7833 63.6333C67.7833 62.1053 69.0219 60.8667 70.55 60.8667C72.0781 60.8667 73.3167 62.1053 73.3167 63.6333C73.3167 65.1614 72.0781 66.4 70.55 66.4C69.0228 66.3981 67.7852 65.1605 67.7833 63.6333ZM80.2333 70.55H77.7271C76.9701 69.2433 75.8731 68.1662 74.5527 67.4333C76.6626 65.2228 76.5812 61.7202 74.3706 59.6101C72.16 57.5002 68.6574 57.5816 66.5473 59.7922C64.5064 61.9303 64.5064 65.2951 66.5473 67.4332C65.9138 67.7851 65.3286 68.218 64.8071 68.7212C64.2814 66.409 62.7943 64.4308 60.7193 63.2832C62.7022 61.2288 62.7665 57.9931 60.8668 55.8616V23.5167H80.2335V70.55H80.2333Z" fill="white"/>
<path d="M67.7833 31.8167H65.0166V53.95H67.7833V31.8167Z" fill="white"/>
<path d="M76.0841 31.8167H73.3174V53.95H76.0841V31.8167Z" fill="white"/>
<path d="M9.68366 31.8167H6.91699V53.95H9.68366V31.8167Z" fill="white"/>
<path d="M17.9835 31.8167H15.2168V53.95H17.9835V31.8167Z" fill="white"/>
<path d="M49.8023 5.53345C49.8018 5.53345 49.8012 5.53345 49.8007 5.53345H33.2007C32.4371 5.53293 31.8179 6.15162 31.8174 6.91522C31.8174 6.91574 31.8174 6.91626 31.8174 6.91678V17.9834C31.8169 18.747 32.4356 19.3663 33.1992 19.3668C33.1997 19.3668 33.2002 19.3668 33.2007 19.3668H49.8007C50.5643 19.3673 51.1835 18.7486 51.1841 17.985C51.1841 17.9845 51.1841 17.984 51.1841 17.9834V6.91678C51.1846 6.15318 50.5659 5.53397 49.8023 5.53345ZM48.4174 16.6001H34.5841V8.30011H48.4174V16.6001Z" fill="white"/>
</svg>
