<svg viewBox="0 0 83 83" fill="none" xmlns="http://www.w3.org/2000/svg">
<path d="M63.5469 50.5781H62.1203C64.5392 49.0649 66.534 46.962 67.9177 44.4668C69.3015 41.9715 70.0287 39.1657 70.0312 36.3125V30.6063C70.7015 30.3103 71.3552 29.9782 71.9895 29.6115C72.1837 29.4964 72.3445 29.3326 72.4559 29.1363C72.5674 28.94 72.6256 28.7181 72.625 28.4923V18.7308L74.1579 18.1562H75.2188V28.7699C74.4847 29.0264 73.8448 29.4981 73.3825 30.1234C72.9202 30.7486 72.6569 31.4986 72.6268 32.2757C72.5967 33.0527 72.8013 33.8208 73.2138 34.48C73.6264 35.1392 74.2279 35.6589 74.9399 35.9714L72.6639 45.0755C72.616 45.2667 72.6123 45.4663 72.6532 45.6592C72.694 45.8521 72.7782 46.0331 72.8995 46.1885C73.0208 46.3439 73.1759 46.4696 73.3531 46.5561C73.5302 46.6425 73.7247 46.6875 73.9219 46.6875H79.1094C79.3065 46.6875 79.501 46.6425 79.6782 46.5561C79.8554 46.4696 80.0105 46.3439 80.1317 46.1885C80.253 46.0331 80.3373 45.8521 80.3781 45.6592C80.4189 45.4663 80.4152 45.2667 80.3673 45.0755L78.0913 35.9714C78.8034 35.6589 79.4048 35.1392 79.8174 34.48C80.23 33.8208 80.4345 33.0527 80.4044 32.2757C80.3744 31.4986 80.111 30.7486 79.6487 30.1234C79.1864 29.4981 78.5466 29.0264 77.8125 28.7699V16.8594C77.8125 16.5154 77.6759 16.1856 77.4327 15.9423C77.1894 15.6991 76.8596 15.5625 76.5156 15.5625H74.1579L62.25 11.0974V3.89062C62.25 3.54667 62.1134 3.21681 61.8702 2.9736C61.6269 2.73038 61.2971 2.59375 60.9531 2.59375H9.07812C7.35899 2.59581 5.71086 3.27964 4.49525 4.49525C3.27964 5.71086 2.59581 7.35899 2.59375 9.07812V68.7344C2.59753 71.8288 3.82845 74.7954 6.01653 76.9835C8.20462 79.1715 11.1712 80.4025 14.2656 80.4062H60.9531C61.2971 80.4062 61.6269 80.2696 61.8702 80.0264C62.1134 79.7832 62.25 79.4533 62.25 79.1094V73.9219H79.1094C79.4533 73.9219 79.7832 73.7852 80.0264 73.542C80.2696 73.2988 80.4062 72.969 80.4062 72.625V67.4375C80.4011 62.9677 78.6232 58.6824 75.4626 55.5218C72.3019 52.3612 68.0167 50.5833 63.5469 50.5781ZM60.4162 53.1719L53.1719 60.4162L45.9275 53.1719H60.4162ZM53.1719 50.5781C49.3898 50.5737 45.7638 49.0693 43.0895 46.3949C40.4151 43.7205 38.9107 40.0946 38.9062 36.3125V31.6269C43.5214 33.072 48.3361 33.778 53.1719 33.7188C58.0076 33.7783 62.8222 33.0727 67.4375 31.6282V36.3125C67.433 40.0946 65.9286 43.7205 63.2543 46.3949C60.5799 49.0693 56.954 50.5737 53.1719 50.5781ZM70.0312 27.7337C69.4482 28.0408 68.85 28.3183 68.239 28.565C63.423 30.3609 58.3107 31.2295 53.1719 31.125C48.0301 31.2295 42.9151 30.3596 38.097 28.5611C37.4884 28.316 36.8928 28.0398 36.3125 27.7337V19.7034L52.7167 25.8558C53.0096 25.9641 53.3316 25.9641 53.6245 25.8558L70.0312 19.7034V27.7337ZM76.5156 31.125C76.7721 31.125 77.0229 31.2011 77.2361 31.3436C77.4494 31.4861 77.6156 31.6886 77.7138 31.9256C77.8119 32.1626 77.8376 32.4233 77.7876 32.6749C77.7375 32.9265 77.614 33.1575 77.4327 33.3389C77.2513 33.5203 77.0202 33.6438 76.7686 33.6938C76.5171 33.7439 76.2563 33.7182 76.0193 33.62C75.7824 33.5219 75.5798 33.3556 75.4373 33.1424C75.2948 32.9291 75.2188 32.6784 75.2188 32.4219C75.2188 32.0779 75.3554 31.7481 75.5986 31.5048C75.8418 31.2616 76.1717 31.125 76.5156 31.125ZM75.5832 44.0938L76.5156 40.3626L77.4481 44.0938H75.5832ZM66.7644 18.1562L53.1719 23.2556L36.1154 16.8594L53.1719 10.4632L66.7696 15.5625H53.1719V18.1562H66.7644ZM15.5625 5.1875H59.6562V10.1247L53.6271 7.86295C53.3342 7.75462 53.0122 7.75462 52.7193 7.86295L31.9693 15.6442C31.7215 15.7366 31.5079 15.9025 31.3571 16.1197C31.2063 16.3369 31.1254 16.595 31.1254 16.8594C31.1254 17.1238 31.2063 17.3819 31.3571 17.5991C31.5079 17.8163 31.7215 17.9822 31.9693 18.0745L33.7188 18.7308V28.4923C33.7186 28.7176 33.7771 28.9391 33.8885 29.1349C33.9999 29.3307 34.1604 29.4941 34.3542 29.609C34.9882 29.977 35.642 30.31 36.3125 30.6063V36.3125C36.3151 39.1657 37.0423 41.9715 38.426 44.4668C39.8097 46.962 41.8046 49.0649 44.2234 50.5781H42.7969C40.2388 50.5796 37.7148 51.1643 35.4167 52.288C33.1187 53.4116 31.1071 55.0445 29.535 57.0625H15.5625V5.1875ZM5.1875 9.07812C5.1875 8.04627 5.5974 7.05667 6.32704 6.32704C7.05667 5.5974 8.04627 5.1875 9.07812 5.1875H12.9688V57.1403C10.3351 57.429 7.87855 58.6069 6.00453 60.4798C5.71681 60.7713 5.44411 61.0774 5.1875 61.3967V9.07812ZM59.6562 77.8125H14.2656C11.858 77.8125 9.5489 76.8561 7.84642 75.1536C6.14394 73.4511 5.1875 71.142 5.1875 68.7344C5.1875 66.3267 6.14394 64.0176 7.84642 62.3152C9.5489 60.6127 11.858 59.6562 14.2656 59.6562H27.8556C26.5952 62.0563 25.937 64.7267 25.9375 67.4375V72.625C25.9375 72.969 26.0741 73.2988 26.3173 73.542C26.5606 73.7852 26.8904 73.9219 27.2344 73.9219H59.6562V77.8125ZM77.8125 71.3281H28.5312V67.4375C28.5372 63.7459 29.9734 60.2002 32.5381 57.545C35.1029 54.8898 38.5967 53.3317 42.2859 53.1978L50.0412 60.9531H33.7188V63.5469H72.625V60.9531H56.3025L64.0578 53.1978C67.747 53.3317 71.2409 54.8898 73.8056 57.545C76.3704 60.2002 77.8065 63.7459 77.8125 67.4375V71.3281Z" fill="white"/>
<path d="M22.0469 67.4375H10.375V70.0312H22.0469V67.4375Z" fill="white"/>
<path d="M20.75 51.875V10.375H37.6094V7.78125H19.4531C19.1092 7.78125 18.7793 7.91788 18.5361 8.1611C18.2929 8.40431 18.1562 8.73417 18.1562 9.07812V53.1719C18.1562 53.5158 18.2929 53.8457 18.5361 54.0889C18.7793 54.3321 19.1092 54.4688 19.4531 54.4688H27.2344V51.875H20.75Z" fill="white"/>
</svg>
