<svg viewBox="0 0 82 82" fill="none" xmlns="http://www.w3.org/2000/svg">
<path d="M75.5937 2.5625C74.5743 2.5625 73.5967 2.96747 72.8758 3.68831C72.155 4.40915 71.75 5.38682 71.75 6.40625V44.8438C71.75 44.9487 71.7629 45.0533 71.7884 45.1551L74.3509 55.4051C74.4204 55.6821 74.5804 55.928 74.8055 56.1037C75.0307 56.2794 75.3081 56.3749 75.5937 56.3749C75.8794 56.3749 76.1568 56.2794 76.3819 56.1037C76.6071 55.928 76.7671 55.6821 76.8366 55.4051L79.3991 45.1551C79.4246 45.0533 79.4375 44.9487 79.4375 44.8438V6.40625C79.4375 5.38682 79.0325 4.40915 78.3117 3.68831C77.5908 2.96747 76.6132 2.5625 75.5937 2.5625ZM75.5937 5.125C75.9336 5.125 76.2594 5.25999 76.4997 5.50027C76.74 5.74055 76.875 6.06644 76.875 6.40625V43.5625H74.3125V6.40625C74.3125 6.06644 74.4475 5.74055 74.6878 5.50027C74.928 5.25999 75.2539 5.125 75.5937 5.125ZM75.5937 49.8112L74.6725 46.125H76.515L75.5937 49.8112Z" fill="white"/>
<path d="M69.1872 56.4506V37.1562C69.1872 36.8164 69.0522 36.4906 68.8119 36.2503C68.5716 36.01 68.2457 35.875 67.9059 35.875H63.6202C64.7619 33.0229 65.3469 29.9784 65.3434 26.9062C65.3434 20.4499 62.7787 14.258 58.2133 9.69262C53.648 5.12728 47.4561 2.5625 40.9997 2.5625C34.5433 2.5625 28.3514 5.12728 23.7861 9.69262C19.2207 14.258 16.6559 20.4499 16.6559 26.9062C16.6525 29.9784 17.2374 33.0229 18.3792 35.875H14.0934C11.1526 35.8843 8.32638 37.0169 6.19297 39.0411C4.05957 41.0653 2.78018 43.8281 2.61652 46.7645C2.45285 49.7008 3.41728 52.5887 5.31251 54.8374C7.20775 57.0862 9.89057 58.5258 12.8122 58.8619V78.1562C12.8122 78.4961 12.9472 78.822 13.1875 79.0622C13.4277 79.3025 13.7536 79.4375 14.0934 79.4375H67.9059C70.8468 79.4282 73.673 78.2956 75.8064 76.2714C77.9398 74.2472 79.2192 71.4844 79.3829 68.548C79.5465 65.6117 78.5821 62.7238 76.6869 60.4751C74.7916 58.2263 72.1088 56.7867 69.1872 56.4506ZM50.5463 35.875C50.9498 33.3313 51.1755 30.7626 51.2215 28.1875H62.7079C62.5583 30.8456 61.9148 33.4526 60.8104 35.875H50.5463ZM34.0502 35.875C33.6246 33.3335 33.3874 30.764 33.3404 28.1875H48.659C48.612 30.764 48.3747 33.3335 47.9492 35.875H34.0502ZM40.9997 5.125C43.2842 5.125 45.7313 8.65869 47.2355 14.4666C45.2119 15.0701 43.1113 15.3761 40.9997 15.375C38.888 15.3761 36.7874 15.0701 34.7638 14.4666C36.268 8.65869 38.7152 5.125 40.9997 5.125ZM32.3372 13.5633C30.4066 12.7244 28.6089 11.6082 27.0007 10.25C29.5441 8.11349 32.5435 6.58859 35.7683 5.79253C34.1591 8.15122 32.9962 10.7851 32.3372 13.5633ZM46.231 5.78612C49.4565 6.58408 52.4559 8.11119 54.9986 10.25C53.3909 11.6105 51.5932 12.7288 49.6622 13.5697C49.0047 10.787 47.8417 8.14869 46.231 5.78612ZM40.9997 17.9375C43.2973 17.9379 45.5835 17.6136 47.7903 16.974C48.3212 19.8284 48.6126 22.7221 48.6616 25.625H33.3378C33.3876 22.722 33.6799 19.8283 34.2116 16.974C36.4176 17.6133 38.7029 17.9377 40.9997 17.9375ZM62.7156 25.625H51.2241C51.1756 22.4315 50.8485 19.2483 50.2465 16.1117C52.6557 15.1129 54.8878 13.7314 56.8564 12.0207C60.3471 15.7263 62.4215 20.5427 62.7156 25.625ZM25.1429 12.0207C27.1116 13.7314 29.3437 15.1129 31.7529 16.1117C31.1509 19.2483 30.8237 22.4315 30.7753 25.625H19.2838C19.5779 20.5427 21.6523 15.7263 25.1429 12.0207ZM19.2915 28.1875H30.7779C30.8239 30.7626 31.0495 33.3313 31.4531 35.875H21.189C20.0846 33.4526 19.4411 30.8456 19.2915 28.1875ZM5.12469 47.4062C5.1274 45.0284 6.07319 42.7488 7.75457 41.0674C9.43595 39.386 11.7156 38.4402 14.0934 38.4375H66.6247V56.375H14.0934C11.7156 56.3723 9.43595 55.4265 7.75457 53.7451C6.07319 52.0637 5.1274 49.7841 5.12469 47.4062ZM67.9059 76.875H15.3747V58.9375H67.9059C70.2846 58.9375 72.5658 59.8824 74.2478 61.5644C75.9298 63.2463 76.8747 65.5276 76.8747 67.9062C76.8747 70.2849 75.9298 72.5661 74.2478 74.2481C72.5658 75.9301 70.2846 76.875 67.9059 76.875Z" fill="white"/>
<path d="M20.5 66.625H71.75V69.1875H20.5V66.625Z" fill="white"/>
<path d="M15.375 46.125H61.5V48.6875H15.375V46.125Z" fill="white"/>
<path d="M20.5 61.5H69.1875V64.0625H20.5V61.5Z" fill="white"/>
<path d="M20.5 71.75H69.1875V74.3125H20.5V71.75Z" fill="white"/>
<path d="M10.25 46.125H12.8125V48.6875H10.25V46.125Z" fill="white"/>
</svg>
