<svg width="17" height="29" viewBox="0 0 17 29" fill="none" xmlns="http://www.w3.org/2000/svg">
<path d="M15.7485 0.00603394L11.9878 0C7.76293 0 5.0326 2.80125 5.0326 7.13694V10.4275H1.25148C0.924742 10.4275 0.660156 10.6924 0.660156 11.0192V15.7869C0.660156 16.1136 0.925044 16.3782 1.25148 16.3782H5.0326V28.4087C5.0326 28.7354 5.29719 29 5.62392 29H10.5572C10.8839 29 11.1485 28.7351 11.1485 28.4087V16.3782H15.5696C15.8963 16.3782 16.1609 16.1136 16.1609 15.7869L16.1627 11.0192C16.1627 10.8623 16.1002 10.712 15.9895 10.601C15.8788 10.49 15.7279 10.4275 15.5711 10.4275H11.1485V7.63806C11.1485 6.29732 11.468 5.61669 13.2145 5.61669L15.7479 5.61578C16.0743 5.61578 16.3389 5.35089 16.3389 5.02446V0.59736C16.3389 0.271225 16.0746 0.00663733 15.7485 0.00603394Z" fill="#DEDEDE"/>
</svg>
