<svg width="29" height="25" viewBox="0 0 29 25" fill="none" xmlns="http://www.w3.org/2000/svg">
<path d="M29 3.50925C27.9326 3.9822 26.7873 4.30296 25.584 4.44616C26.8127 3.7104 27.7532 2.54339 28.1989 1.15707C27.0464 1.83843 25.7743 2.33318 24.4188 2.60139C23.3333 1.44342 21.7893 0.722168 20.0768 0.722168C16.7914 0.722168 14.1275 3.38604 14.1275 6.66968C14.1275 7.13538 14.1801 7.59024 14.2816 8.02519C9.338 7.77689 4.9544 5.40841 2.02052 1.80943C1.50767 2.68654 1.21592 3.70855 1.21592 4.79951C1.21592 6.86358 2.26698 8.6848 3.86169 9.75031C2.88673 9.71771 1.96977 9.44951 1.16701 9.0037V9.078C1.16701 11.9593 3.21838 14.3641 5.93841 14.9114C5.44006 15.0455 4.91455 15.1198 4.3709 15.1198C3.98674 15.1198 3.61524 15.0817 3.25099 15.0092C4.00844 17.3741 6.20481 19.0938 8.80709 19.141C6.77202 20.7357 4.206 21.6834 1.41892 21.6834C0.938709 21.6834 0.465706 21.6544 0 21.6019C2.63308 23.2926 5.75906 24.2785 9.11879 24.2785C20.0624 24.2785 26.0444 15.214 26.0444 7.35288L26.0244 6.58272C27.1932 5.74907 28.2044 4.70166 29 3.50925Z" fill="#DEDEDE"/>
</svg>
