<svg width="28" height="17" viewBox="0 0 28 17" fill="none" xmlns="http://www.w3.org/2000/svg">
<path d="M27.8516 15.1697C27.8177 15.0941 27.7861 15.0313 27.7567 14.981C27.2709 14.0748 26.3425 12.9625 24.9722 11.6438L24.9433 11.6136L24.9288 11.5988L24.9141 11.5836H24.8994C24.2775 10.9696 23.8836 10.5567 23.7187 10.3453C23.4169 9.94267 23.3493 9.53508 23.5142 9.1221C23.6308 8.81008 24.0685 8.15113 24.8263 7.14436C25.225 6.6108 25.5407 6.18317 25.7738 5.86099C27.4553 3.54568 28.1843 2.06617 27.9607 1.42187L27.8738 1.2713C27.8155 1.18066 27.6648 1.09773 27.4221 1.02211C27.1789 0.946639 26.868 0.934159 26.4888 0.984453L22.2904 1.01449C22.2223 0.989529 22.1252 0.991856 21.9987 1.02211C21.8723 1.05236 21.8091 1.06754 21.8091 1.06754L21.736 1.10535L21.678 1.15078C21.6294 1.18081 21.576 1.23365 21.5176 1.30917C21.4595 1.38442 21.411 1.47274 21.3722 1.57338C20.9151 2.79138 20.3954 3.92381 19.8121 4.97062C19.4525 5.59482 19.1222 6.13578 18.8206 6.59382C18.5194 7.0517 18.2667 7.38906 18.0627 7.6053C17.8585 7.82176 17.6741 7.99517 17.5086 8.12617C17.3433 8.25722 17.2171 8.31259 17.1298 8.29234C17.0422 8.27208 16.9597 8.25198 16.8817 8.23189C16.7457 8.14124 16.6363 8.01797 16.5538 7.86196C16.471 7.70595 16.4153 7.50958 16.3861 7.27303C16.3571 7.03631 16.3399 6.83271 16.335 6.66152C16.3305 6.49054 16.3326 6.24869 16.3424 5.93667C16.3526 5.62449 16.3571 5.41327 16.3571 5.30253C16.3571 4.91995 16.3643 4.50475 16.3788 4.05682C16.3935 3.60888 16.4054 3.25397 16.4153 2.9925C16.4252 2.73077 16.4298 2.45387 16.4298 2.16194C16.4298 1.87001 16.4127 1.64107 16.3788 1.47491C16.3453 1.30896 16.2938 1.14787 16.2261 0.991697C16.1579 0.835686 16.0581 0.715002 15.9272 0.629328C15.796 0.54376 15.6329 0.475856 15.4389 0.425403C14.9237 0.304666 14.2677 0.239353 13.4706 0.229199C11.663 0.209103 10.5015 0.329998 9.98636 0.591727C9.78227 0.70231 9.59758 0.853402 9.43244 1.04453C9.25746 1.26607 9.23305 1.38696 9.35938 1.40685C9.9426 1.49733 10.3555 1.71379 10.5985 2.05601L10.6861 2.23735C10.7542 2.36819 10.8222 2.59983 10.8903 2.93195C10.9582 3.26407 11.0021 3.63146 11.0214 4.03392C11.0699 4.76886 11.0699 5.39798 11.0214 5.92134C10.9727 6.4449 10.9268 6.85248 10.8829 7.14441C10.839 7.43634 10.7735 7.67289 10.6861 7.85402C10.5985 8.03521 10.5402 8.14595 10.511 8.18614C10.4819 8.22634 10.4576 8.25167 10.4383 8.26161C10.3119 8.31174 10.1805 8.33729 10.0446 8.33729C9.90839 8.33729 9.74326 8.26674 9.54892 8.12575C9.35463 7.98476 9.15298 7.79109 8.94399 7.54443C8.73499 7.29772 8.4993 6.95297 8.23679 6.51011C7.97448 6.06725 7.70233 5.54384 7.42047 4.93989L7.18727 4.5019C7.04149 4.22013 6.84235 3.80984 6.58964 3.27142C6.33679 2.73278 6.11329 2.21176 5.919 1.70845C5.84134 1.49707 5.72466 1.33614 5.56918 1.2254L5.49621 1.17997C5.4477 1.13978 5.36984 1.0971 5.26301 1.05162C5.15604 1.00619 5.04442 0.97361 4.92769 0.953567L0.933201 0.983606C0.525015 0.983606 0.248057 1.07938 0.102225 1.27067L0.0438619 1.36115C0.0147057 1.41155 0 1.49204 0 1.60284C0 1.71358 0.0291561 1.84949 0.0875195 2.01042C0.670642 3.42986 1.30478 4.79879 1.98992 6.11743C2.67506 7.43607 3.27044 8.49827 3.77569 9.30308C4.28105 10.1085 4.79616 10.8686 5.32102 11.5831C5.84588 12.2978 6.19331 12.7558 6.36329 12.9571C6.53348 13.1587 6.66716 13.3094 6.76433 13.41L7.12885 13.7723C7.3621 14.014 7.70462 14.3034 8.15657 14.6405C8.60862 14.9779 9.10907 15.31 9.65819 15.6374C10.2074 15.9643 10.8463 16.231 11.5753 16.4373C12.3042 16.6439 13.0137 16.7267 13.7038 16.6867H15.3803C15.7204 16.6563 15.978 16.5456 16.1531 16.3545L16.2111 16.2788C16.2501 16.2187 16.2866 16.1254 16.3203 15.9998C16.3544 15.874 16.3713 15.7353 16.3713 15.5846C16.3614 15.1518 16.3932 14.7618 16.4659 14.4145C16.5386 14.0674 16.6214 13.8057 16.714 13.6294C16.8066 13.4533 16.9111 13.3047 17.0273 13.1842C17.1439 13.0635 17.2269 12.9903 17.2756 12.9652C17.324 12.9398 17.3627 12.9226 17.3918 12.9123C17.6251 12.8318 17.8996 12.9098 18.2157 13.1466C18.5317 13.3831 18.828 13.6752 19.1051 14.0223C19.3821 14.3698 19.715 14.7596 20.1036 15.1924C20.4926 15.6253 20.8326 15.9471 21.1241 16.1588L21.4156 16.34C21.6102 16.4609 21.8629 16.5716 22.174 16.6723C22.4845 16.7728 22.7565 16.798 22.9902 16.7477L26.7221 16.6874C27.0912 16.6874 27.3784 16.6241 27.5822 16.4985C27.7863 16.3727 27.9076 16.2341 27.9467 16.0833C27.9857 15.9324 27.9878 15.7611 27.9541 15.5697C27.9195 15.3787 27.8855 15.2452 27.8516 15.1697Z" fill="#30D5C8"/>
</svg>
