<svg width="29" height="29" viewBox="0 0 29 29" fill="none" xmlns="http://www.w3.org/2000/svg">
<path d="M27.7675 6.4525C26.9809 5.05325 26.1272 4.79588 24.389 4.698C22.6526 4.58019 18.2863 4.53125 14.5036 4.53125C10.7137 4.53125 6.34556 4.58019 4.611 4.69619C2.87644 4.79588 2.02094 5.05144 1.22706 6.4525C0.416875 7.84994 0 10.2569 0 14.4946C0 14.4982 0 14.5 0 14.5C0 14.5036 0 14.5054 0 14.5054V14.5091C0 18.7286 0.416875 21.1537 1.22706 22.5366C2.02094 23.9359 2.87462 24.1896 4.60919 24.3074C6.34556 24.4089 10.7137 24.4688 14.5036 24.4688C18.2863 24.4688 22.6526 24.4089 24.3908 24.3092C26.129 24.1914 26.9827 23.9377 27.7693 22.5384C28.5868 21.1555 29 18.7304 29 14.5109C29 14.5109 29 14.5054 29 14.5018C29 14.5018 29 14.4982 29 14.4964C29 10.2569 28.5868 7.84994 27.7675 6.4525ZM10.875 19.9375V9.0625L19.9375 14.5L10.875 19.9375Z" fill="#30D5C8"/>
</svg>
