<svg width="372" height="373" viewBox="0 0 372 373" fill="none" xmlns="http://www.w3.org/2000/svg">
<g opacity="0.3">
<path fill-rule="evenodd" clip-rule="evenodd" d="M364.086 372.007H7.91491C3.54384 372.007 0 368.463 0 364.092V141.324H0.00489481C0.00489481 138.828 1.17965 136.478 3.17184 134.985L181.26 1.58225C184.069 -0.527416 187.936 -0.527416 190.746 1.58225L368.839 134.99C370.831 136.483 372.006 138.833 372.001 141.324V364.092C372.001 368.463 368.462 372.007 364.086 372.007ZM186.004 17.803L21.1221 141.324L75.9733 182.411V107.094H296.044V182.411L350.886 141.324L186.004 17.803ZM91.8019 122.924V194.266L186.003 264.84L280.208 194.271V122.924H91.8019ZM356.172 157.143L190.746 281.06C189.342 282.117 185.338 283.919 181.26 281.06L15.8304 157.133V356.176H356.172V157.143ZM140.731 186.239H232.758V202.069H140.731V186.239ZM140.731 150.673H232.758V166.503H140.731V150.673Z" fill="#30D5C8"/>
</g>
</svg>
