<svg width="76" height="76" viewBox="0 0 76 76" fill="none" xmlns="http://www.w3.org/2000/svg">
<path fill-rule="evenodd" clip-rule="evenodd" d="M74.382 76.0003H1.617C0.724 76.0003 0 75.2762 0 74.3832V28.8722H0.001C0.001 28.3622 0.241 27.8822 0.648 27.5772L37.031 0.32325C37.605 -0.10775 38.395 -0.10775 38.969 0.32325L75.353 27.5783C75.76 27.8833 76 28.3632 75.999 28.8722V74.3832C75.999 75.2762 75.276 76.0003 74.382 76.0003ZM38 3.63725L4.315 28.8722L15.521 37.2663V21.8792H60.481V37.2663L71.685 28.8722L38 3.63725ZM18.755 25.1133V39.6883L38 54.1063L57.246 39.6893V25.1133H18.755ZM72.765 32.1042L38.969 57.4202C38.682 57.6362 37.864 58.0042 37.031 57.4202L3.234 32.1022V72.7663H72.765V32.1042ZM28.751 38.0482H47.552V41.2822H28.751V38.0482ZM28.751 30.7822H47.552V34.0163H28.751V30.7822Z" fill="#30D5C8"/>
</svg>
