<svg width="20" height="20" viewBox="0 0 20 20" fill="none" xmlns="http://www.w3.org/2000/svg">
<path d="M0.727133 0.96081L4.78963 0.0233106C5.23104 -0.0782519 5.68416 0.152217 5.86385 0.566279L7.73885 4.94128C7.90291 5.32409 7.79354 5.77331 7.46932 6.03503L5.10213 7.97253C6.50838 10.9686 8.96541 13.4608 12.024 14.8944L13.9615 12.5272C14.2271 12.203 14.6724 12.0936 15.0553 12.2577L19.4303 14.1327C19.8482 14.3163 20.0787 14.7694 19.9771 15.2108L19.0396 19.2733C18.942 19.6952 18.567 19.9999 18.1256 19.9999C8.12166 19.9999 0.00056839 11.8944 0.00056839 1.87487C0.00056839 1.43737 0.301352 1.05847 0.727133 0.96081Z" fill="#30D5C8"/>
</svg>
