<svg version="1.1" xmlns="http://www.w3.org/2000/svg" xmlns:xlink="http://www.w3.org/1999/xlink" viewBox="0 0 226 226"><g fill="none" fill-rule="nonzero" stroke="none" stroke-width="1" stroke-linecap="butt" stroke-linejoin="miter" stroke-miterlimit="10" stroke-dasharray="" stroke-dashoffset="0" font-family="none" font-weight="none" font-size="none" text-anchor="none" style="mix-blend-mode: normal"><path d="M0,226v-226h226v226z" fill="none"></path><g fill="#23aea3"><path d="M113,39.11538c-0.47536,0 -0.91677,0.13582 -1.35817,0.27163l-104.30769,34.76923c-1.76562,0.57722 -2.98798,2.20703 -2.98798,4.07452c0,1.86749 1.22236,3.4973 2.98798,4.07452l23.90385,8.14904c-0.23768,0.30559 -0.57722,0.50932 -0.8149,0.8149c-5.19501,6.58714 -7.8774,15.65294 -8.96394,28.79327c-3.90475,1.73167 -6.51923,5.77224 -6.51923,10.32212c0,4.54988 2.61448,8.59044 6.51923,10.32212c-3.46334,29.4384 -20.91587,39.31911 -20.91587,41.83173c0,1.29027 13.58173,8.69231 16.84135,8.69231c5.02524,0 17.11298,-8.42067 17.11298,-26.89183c0,-11.03515 -1.12049,-19.15024 -2.17308,-24.99038c2.88612,-2.00331 4.88942,-5.16106 4.88942,-8.96394c0,-4.00661 -2.27494,-7.26622 -5.43269,-9.23558c0.98467,-11.95192 3.25962,-18.87861 6.79087,-23.36058c4.07452,-5.19501 10.69562,-8.35276 20.64423,-12.49519c0.47536,-0.20372 1.22236,-0.54327 1.90144,-0.8149c0.13582,-0.03395 0.13582,-0.23768 0.27163,-0.27163c1.73167,-0.67909 3.53125,-1.35817 4.88942,-1.90144c6.51923,-2.68239 11.88402,-4.58384 16.84135,-6.51923c1.49399,-0.57722 2.41076,-1.08654 3.80288,-1.62981c4.48197,-1.73167 7.70763,-2.92007 10.86538,-4.07452c1.1884,-0.4414 1.93539,-0.71304 2.98798,-1.08654c7.16437,-2.58053 10.22025,-3.4973 10.32212,-3.53125c2.68239,-0.91677 5.60246,0.50932 6.51923,3.25962c0.91677,2.71635 -0.50932,5.60246 -3.25962,6.51923c-0.20372,0.06791 -12.25751,3.70102 -44.00481,16.84135c-2.03726,0.84886 -4.10847,1.42609 -5.97596,2.17308c-3.76893,1.49399 -6.89273,2.88612 -9.50721,4.07452l56.77163,18.74279c0.4414,0.13582 0.88282,0.27163 1.35817,0.27163c0.47536,0 0.91677,-0.13582 1.35817,-0.27163l104.30769,-34.76923c1.76563,-0.57722 2.98798,-2.20703 2.98798,-4.07452c0,-1.86749 -1.22236,-3.4973 -2.98798,-4.07452l-104.30769,-34.76923c-0.4414,-0.13582 -0.88281,-0.27163 -1.35817,-0.27163zM182.53846,106.48077l-65.46394,21.73077c-1.35817,0.4414 -2.68239,0.54327 -4.07452,0.54327c-1.39213,0 -2.71635,-0.10187 -4.07452,-0.54327l-63.29087,-21.1875c-1.15444,2.98798 -1.62981,6.89273 -1.62981,12.49519c4.14243,2.37681 8.14904,7.19832 8.14904,15.48317c0,5.09315 -2.71635,8.72626 -4.88942,11.13702c9.37139,10.89934 35.2446,18.74279 65.73558,18.74279c38.40235,0 69.53846,-12.39333 69.53846,-27.70673z"></path></g></g></svg>