<?xml version="1.0" encoding="UTF-8"?>
<svg xmlns="http://www.w3.org/2000/svg" xmlns:xlink="http://www.w3.org/1999/xlink" viewBox="0 0 104 104" version="1.1">
<g id="surface779849">
<path style=" stroke:none;fill-rule:nonzero;fill:rgb(13.72549%,68.235294%,63.921569%);fill-opacity:1;" d="M 28 0 C 19.1875 0 12 7.1875 12 16 L 12 88 C 12 96.8125 19.1875 104 28 104 L 76 104 C 84.8125 104 92 96.8125 92 88 L 92 32 C 92 27.75 88.109375 23.71875 81.125 16.875 C 80.15625 15.921875 79.109375 14.859375 78.125 13.875 C 77.140625 12.890625 76.078125 11.96875 75.125 11 C 68.28125 4.015625 64.25 0 60 0 Z M 28 8 L 57.125 8 C 60.015625 8.734375 60 12.203125 60 15.75 L 60 28 C 60 30.203125 61.796875 32 64 32 L 76 32 C 79.984375 32 84 32.015625 84 36 L 84 88 C 84 92.421875 80.421875 96 76 96 L 28 96 C 23.578125 96 20 92.421875 20 88 L 20 16 C 20 11.578125 23.578125 8 28 8 Z M 31.25 40 C 29.046875 40.203125 27.421875 42.171875 27.625 44.375 C 27.828125 46.578125 29.796875 48.203125 32 48 L 72 48 C 73.4375 48.015625 74.78125 47.265625 75.515625 46.015625 C 76.234375 44.765625 76.234375 43.234375 75.515625 41.984375 C 74.78125 40.734375 73.4375 39.984375 72 40 L 32 40 C 31.875 40 31.75 40 31.625 40 C 31.5 40 31.375 40 31.25 40 Z M 31.25 56 C 29.046875 56.203125 27.421875 58.171875 27.625 60.375 C 27.828125 62.578125 29.796875 64.203125 32 64 L 64 64 C 65.4375 64.015625 66.78125 63.265625 67.515625 62.015625 C 68.234375 60.765625 68.234375 59.234375 67.515625 57.984375 C 66.78125 56.734375 65.4375 55.984375 64 56 L 32 56 C 31.875 56 31.75 56 31.625 56 C 31.5 56 31.375 56 31.25 56 Z M 31.25 72 C 29.046875 72.203125 27.421875 74.171875 27.625 76.375 C 27.828125 78.578125 29.796875 80.203125 32 80 L 72 80 C 73.4375 80.015625 74.78125 79.265625 75.515625 78.015625 C 76.234375 76.765625 76.234375 75.234375 75.515625 73.984375 C 74.78125 72.734375 73.4375 71.984375 72 72 L 32 72 C 31.875 72 31.75 72 31.625 72 C 31.5 72 31.375 72 31.25 72 Z M 31.25 72 "/>
</g>
</svg>
