<svg width="20" height="20" viewBox="0 0 20 20" fill="none" xmlns="http://www.w3.org/2000/svg">
<path d="M16.8996 0H5.81301C4.92718 0 4.20671 0.720472 4.20671 1.6063V2.70866H3.10435C2.21852 2.70866 1.49805 3.42913 1.49805 4.31496V15.311C1.49805 15.7402 1.6634 16.1417 1.96655 16.4449L5.05316 19.5315C5.35631 19.8346 5.75789 20 6.18702 20H14.187C15.0728 20 15.7933 19.2795 15.7933 18.3937V17.2913H16.8957C17.7815 17.2913 18.502 16.5709 18.502 15.685V1.6063C18.502 0.720472 17.7815 0 16.8996 0ZM5.20671 18.1063L3.39962 16.2992H5.20671V18.1063ZM14.6831 18.3937C14.6831 18.6654 14.4626 18.8858 14.191 18.8858H6.31301V15.7402C6.31301 15.4331 6.06498 15.185 5.75789 15.185H2.61222V4.31102C2.61222 4.03937 2.83269 3.8189 3.10435 3.8189H14.191C14.4626 3.8189 14.6831 4.03937 14.6831 4.31102V18.3937ZM16.8996 16.1811H15.7973V4.31102C15.7973 3.4252 15.0768 2.70472 14.191 2.70472H5.32088V1.60236C5.32088 1.33071 5.54135 1.11024 5.81301 1.11024H16.8957C17.1673 1.11024 17.3878 1.33071 17.3878 1.60236V15.689H17.3917C17.3917 15.9606 17.1713 16.1811 16.8996 16.1811Z" fill="#23AEA3"/>
<path d="M13.1433 5.11023H8.35199C8.04491 5.11023 7.79688 5.35826 7.79688 5.66535C7.79688 5.97243 8.04491 6.22047 8.35199 6.22047H13.1394C13.4465 6.22047 13.6945 5.97243 13.6945 5.66535C13.6984 5.35826 13.4465 5.11023 13.1433 5.11023Z" fill="#23AEA3"/>
<path d="M13.1433 7.95276H8.35199C8.04491 7.95276 7.79688 8.20079 7.79688 8.50788C7.79688 8.81496 8.04491 9.063 8.35199 9.063H13.1394C13.4465 9.063 13.6945 8.81496 13.6945 8.50788C13.6945 8.20079 13.4465 7.95276 13.1433 7.95276Z" fill="#23AEA3"/>
<path d="M13.1433 10.7992H8.35199C8.04491 10.7992 7.79688 11.0472 7.79688 11.3543C7.79688 11.6614 8.04491 11.9094 8.35199 11.9094H13.1394C13.4465 11.9094 13.6945 11.6614 13.6945 11.3543C13.6984 11.0472 13.4465 10.7992 13.1433 10.7992Z" fill="#23AEA3"/>
<path d="M13.1433 13.6417H8.35199C8.04491 13.6417 7.79688 13.8898 7.79688 14.1968C7.79688 14.5039 8.04491 14.752 8.35199 14.752H13.1394C13.4465 14.752 13.6945 14.5039 13.6945 14.1968C13.6984 13.8898 13.4465 13.6417 13.1433 13.6417Z" fill="#23AEA3"/>
<path d="M13.1433 16.4843H8.35199C8.04491 16.4843 7.79688 16.7323 7.79688 17.0394C7.79688 17.3465 8.04491 17.5945 8.35199 17.5945H13.1394C13.4465 17.5945 13.6945 17.3465 13.6945 17.0394C13.6984 16.7362 13.4465 16.4843 13.1433 16.4843Z" fill="#23AEA3"/>
<path d="M6.37618 4.80713H4.1557C3.84862 4.80713 3.60059 5.05516 3.60059 5.36225V7.58665C3.60059 7.89374 3.84862 8.14177 4.1557 8.14177H6.37618C6.68326 8.14177 6.9313 7.89374 6.9313 7.58665V5.36225C6.9313 5.05516 6.68326 4.80713 6.37618 4.80713ZM5.82106 7.0276H4.71082V5.91736H5.82106V7.0276Z" fill="#23AEA3"/>
<path d="M6.37618 9.00391H4.1557C3.84862 9.00391 3.60059 9.25194 3.60059 9.55902V11.7795C3.60059 12.0866 3.84862 12.3346 4.1557 12.3346H6.37618C6.68326 12.3346 6.9313 12.0866 6.9313 11.7795V9.55902C6.9313 9.25194 6.68326 9.00391 6.37618 9.00391ZM5.82106 11.2244H4.71082V10.1141H5.82106V11.2244Z" fill="#23AEA3"/>
</svg>
