<svg width="28" height="42" viewBox="0 0 28 42" fill="none" xmlns="http://www.w3.org/2000/svg">
<path fill-rule="evenodd" clip-rule="evenodd" d="M14 0C6.28 0 0 6.232 0 13.893C0 16.978 1.985 22.008 6.069 29.27C8.958 34.407 11.799 38.69 11.919 38.87L14 42L16.081 38.87C16.2 38.69 19.042 34.407 21.93 29.27C26.014 22.008 28 16.978 28 13.893C28 6.232 21.719 0 14 0Z" fill="#3AEBDD"/>
<path fill-rule="evenodd" clip-rule="evenodd" d="M14.25 22.5C18.2541 22.5 21.5 19.2541 21.5 15.25C21.5 11.2459 18.2541 8 14.25 8C10.2459 8 7 11.2459 7 15.25C7 19.2541 10.2459 22.5 14.25 22.5Z" fill="white"/>
</svg>
