<svg width="19" height="19" viewBox="0 0 19 19" fill="none" xmlns="http://www.w3.org/2000/svg">
<path fill-rule="evenodd" clip-rule="evenodd" d="M17.6949 17.6939C17.194 18.1961 16.3811 18.1961 15.8789 17.6939L12.1546 13.9696C9.14555 16.1104 4.95501 15.8523 2.25677 13.1528C-0.752257 10.1437 -0.752257 5.26483 2.25677 2.25581C5.26708 -0.751936 10.146 -0.751936 13.155 2.25581C15.8533 4.95404 16.1114 9.14459 13.9705 12.1536L17.6949 15.8767C18.197 16.3788 18.197 17.1918 17.6949 17.6939ZM11.338 4.07323C9.33199 2.06593 6.08024 2.06593 4.07422 4.07323C2.06692 6.07797 2.06692 9.32972 4.07422 11.337C6.08024 13.343 9.33199 13.343 11.338 11.337C13.3453 9.32972 13.3453 6.07797 11.338 4.07323Z" fill="#BABABA"/>
</svg>
