<?xml version="1.0" encoding="UTF-8"?>
<svg xmlns="http://www.w3.org/2000/svg" xmlns:xlink="http://www.w3.org/1999/xlink" viewBox="0 0 40 40" version="1.1">
<g id="surface784998">
<path style=" stroke:none;fill-rule:nonzero;fill:rgb(100%,100%,100%);fill-opacity:1;" d="M 20 38.5 C 9.800781 38.5 1.5 30.199219 1.5 20 C 1.5 9.800781 9.800781 1.5 20 1.5 C 30.199219 1.5 38.5 9.800781 38.5 20 C 38.5 30.199219 30.199219 38.5 20 38.5 Z M 20 38.5 "/>
<path style=" stroke:none;fill-rule:nonzero;fill:rgb(13.72549%,68.235294%,63.921569%);fill-opacity:1;" d="M 20 2 C 29.925781 2 38 10.074219 38 20 C 38 29.925781 29.925781 38 20 38 C 10.074219 38 2 29.925781 2 20 C 2 10.074219 10.074219 2 20 2 M 20 1 C 9.507812 1 1 9.507812 1 20 C 1 30.492188 9.507812 39 20 39 C 30.492188 39 39 30.492188 39 20 C 39 9.507812 30.492188 1 20 1 Z M 20 1 "/>
<path style=" stroke:none;fill-rule:nonzero;fill:rgb(100%,100%,100%);fill-opacity:1;" d="M 20 35.5 C 11.453125 35.5 4.5 28.546875 4.5 20 C 4.5 11.453125 11.453125 4.5 20 4.5 C 28.546875 4.5 35.5 11.453125 35.5 20 C 35.5 28.546875 28.546875 35.5 20 35.5 Z M 20 35.5 "/>
<path style=" stroke:none;fill-rule:nonzero;fill:rgb(13.72549%,68.235294%,63.921569%);fill-opacity:1;" d="M 20 5 C 28.269531 5 35 11.730469 35 20 C 35 28.269531 28.269531 35 20 35 C 11.730469 35 5 28.269531 5 20 C 5 11.730469 11.730469 5 20 5 M 20 4 C 11.164062 4 4 11.164062 4 20 C 4 28.835938 11.164062 36 20 36 C 28.835938 36 36 28.835938 36 20 C 36 11.164062 28.835938 4 20 4 Z M 20 4 "/>
<path style="fill:none;stroke-width:11.3;stroke-linecap:round;stroke-linejoin:miter;stroke:rgb(13.72549%,68.235294%,63.921569%);stroke-opacity:1;stroke-miterlimit:10;" d="M 150.519531 57.581445 L 113 113 L 141.25 141.25 " transform="matrix(0.176991,0,0,0.176991,0,0)"/>
<path style=" stroke:none;fill-rule:nonzero;fill:rgb(13.72549%,68.235294%,63.921569%);fill-opacity:1;" d="M 20 18.5 C 19.171875 18.5 18.5 19.171875 18.5 20 C 18.5 20.828125 19.171875 21.5 20 21.5 C 20.828125 21.5 21.5 20.828125 21.5 20 C 21.5 19.171875 20.828125 18.5 20 18.5 Z M 20 18.5 "/>
<path style=" stroke:none;fill-rule:nonzero;fill:rgb(40%,40%,40%);fill-opacity:1;" d="M 20 7 C 19.449219 7 19 7.449219 19 8 C 19 8.550781 19.449219 9 20 9 C 20.550781 9 21 8.550781 21 8 C 21 7.449219 20.550781 7 20 7 Z M 20 31 C 19.449219 31 19 31.449219 19 32 C 19 32.550781 19.449219 33 20 33 C 20.550781 33 21 32.550781 21 32 C 21 31.449219 20.550781 31 20 31 Z M 20 31 "/>
<path style=" stroke:none;fill-rule:nonzero;fill:rgb(40%,40%,40%);fill-opacity:1;" d="M 32 19 C 31.449219 19 31 19.449219 31 20 C 31 20.550781 31.449219 21 32 21 C 32.550781 21 33 20.550781 33 20 C 33 19.449219 32.550781 19 32 19 Z M 32 19 "/>
<path style=" stroke:none;fill-rule:nonzero;fill:rgb(40%,40%,40%);fill-opacity:1;" d="M 8 19 C 7.449219 19 7 19.449219 7 20 C 7 20.550781 7.449219 21 8 21 C 8.550781 21 9 20.550781 9 20 C 9 19.449219 8.550781 19 8 19 Z M 8 19 "/>
</g>
</svg>
